<?xml version="1.0" encoding="UTF-8" standalone="no"?>
<!-- Generator: Adobe Illustrator 25.2.3, SVG Export Plug-In . SVG Version: 6.00 Build 0)  -->

<svg
   xmlns:dc="http://purl.org/dc/elements/1.1/"
   xmlns:cc="http://creativecommons.org/ns#"
   xmlns:rdf="http://www.w3.org/1999/02/22-rdf-syntax-ns#"
   xmlns:svg="http://www.w3.org/2000/svg"
   xmlns="http://www.w3.org/2000/svg"
   xmlns:xlink="http://www.w3.org/1999/xlink"
   xmlns:sodipodi="http://sodipodi.sourceforge.net/DTD/sodipodi-0.dtd"
   xmlns:inkscape="http://www.inkscape.org/namespaces/inkscape"
   version="1.1"
   id="Layer_1"
   x="0px"
   y="0px"
   viewBox="0 0 15.3 15.4"
   xml:space="preserve"
   sodipodi:docname="biomeddot.svg"
   width="15.3"
   height="15.4"
   inkscape:version="0.92.4 (5da689c313, 2019-01-14)"><metadata
   id="metadata119"><rdf:RDF><cc:Work
       rdf:about=""><dc:format>image/svg+xml</dc:format><dc:type
         rdf:resource="http://purl.org/dc/dcmitype/StillImage" /><dc:title></dc:title></cc:Work></rdf:RDF></metadata><defs
   id="defs117" /><sodipodi:namedview
   pagecolor="#ffffff"
   bordercolor="#666666"
   borderopacity="1"
   objecttolerance="10"
   gridtolerance="10"
   guidetolerance="10"
   inkscape:pageopacity="0"
   inkscape:pageshadow="2"
   inkscape:window-width="1920"
   inkscape:window-height="1027"
   id="namedview115"
   showgrid="false"
   fit-margin-top="0"
   fit-margin-left="0"
   fit-margin-right="0"
   fit-margin-bottom="0"
   inkscape:zoom="3.3712566"
   inkscape:cx="77.534247"
   inkscape:cy="-10.910517"
   inkscape:window-x="1912"
   inkscape:window-y="-8"
   inkscape:window-maximized="1"
   inkscape:current-layer="Layer_1" />
<style
   type="text/css"
   id="style2">
	.st0{fill-rule:evenodd;clip-rule:evenodd;}
	.st1{fill:none;stroke:#A5A4A4;stroke-miterlimit:8;}
	.st2{clip-path:url(#SVGID_2_);fill-rule:evenodd;clip-rule:evenodd;fill:#F2F2F3;}
	.st3{clip-path:url(#SVGID_2_);fill:none;stroke:#A5A4A4;stroke-miterlimit:8;}
	.st4{clip-path:url(#SVGID_4_);fill-rule:evenodd;clip-rule:evenodd;fill:#F2F2F3;}
	.st5{clip-path:url(#SVGID_4_);fill:none;stroke:#A5A4A4;stroke-miterlimit:8;}
	.st6{clip-path:url(#SVGID_6_);fill-rule:evenodd;clip-rule:evenodd;}
	.st7{clip-path:url(#SVGID_6_);fill:none;stroke:#A5A4A4;stroke-miterlimit:8;}
	.st8{fill-rule:evenodd;clip-rule:evenodd;fill:#ED2024;}
	.st9{clip-path:url(#SVGID_9_);}
	.st10{clip-path:url(#SVGID_10_);}
	.st11{clip-path:url(#SVGID_12_);}
	.st12{clip-path:url(#SVGID_15_);}
	.st13{clip-path:url(#SVGID_16_);}
	.st14{clip-path:url(#SVGID_18_);}
</style>






<g
   id="g52"
   transform="translate(-189.7,-497)">
	<path
   class="st0"
   d="m 197.4,511.9 c -4,0 -7.2,-3.2 -7.2,-7.2 0,-4 3.2,-7.2 7.2,-7.2 0,0 0,0 0,0 v 7.2 z"
   id="path36"
   inkscape:connector-curvature="0"
   style="clip-rule:evenodd;fill-rule:evenodd" />
	<path
   class="st1"
   d="m 197.4,511.9 c -4,0 -7.2,-3.2 -7.2,-7.2 0,-4 3.2,-7.2 7.2,-7.2 0,0 0,0 0,0 v 7.2 z"
   id="path38"
   inkscape:connector-curvature="0"
   style="fill:none;stroke:#a5a4a4;stroke-miterlimit:8" />
	<g
   id="g50">
		<defs
   id="defs41">
			<polygon
   id="SVGID_5_"
   points="205,497 189.6,497 189.6,512.3 205,512.3 " />
		</defs>
		<clipPath
   id="SVGID_6_">
			<use
   xlink:href="#SVGID_5_"
   style="overflow:visible"
   id="use43"
   x="0"
   y="0"
   width="100%"
   height="100%" />
		</clipPath>
		<path
   class="st6"
   d="m 197.3,497.5 c 4,0 7.2,3.2 7.2,7.2 0,4 -3.2,7.2 -7.2,7.2 0,0 0,0 0,0 v -7.2 z"
   clip-path="url(#SVGID_6_)"
   id="path46"
   inkscape:connector-curvature="0"
   style="clip-rule:evenodd;fill-rule:evenodd" />
		<path
   class="st7"
   d="m 197.3,497.5 c 4,0 7.2,3.2 7.2,7.2 0,4 -3.2,7.2 -7.2,7.2 0,0 0,0 0,0 v -7.2 z"
   clip-path="url(#SVGID_6_)"
   id="path48"
   inkscape:connector-curvature="0"
   style="fill:none;stroke:#a5a4a4;stroke-miterlimit:8" />
	</g>
</g>



</svg>