<?xml version="1.0" encoding="utf-8"?>
<!-- Generator: Adobe Illustrator 25.2.3, SVG Export Plug-In . SVG Version: 6.00 Build 0)  -->
<svg version="1.1" id="Layer_1" xmlns="http://www.w3.org/2000/svg" xmlns:xlink="http://www.w3.org/1999/xlink" x="0px" y="0px"
	 viewBox="0 0 612 792" style="enable-background:new 0 0 612 792;" xml:space="preserve">
<style type="text/css">
	.st0{fill-rule:evenodd;clip-rule:evenodd;}
	.st1{fill:none;stroke:#A5A4A4;stroke-miterlimit:8;}
	.st2{clip-path:url(#SVGID_2_);fill-rule:evenodd;clip-rule:evenodd;fill:#F2F2F3;}
	.st3{clip-path:url(#SVGID_2_);fill:none;stroke:#A5A4A4;stroke-miterlimit:8;}
	.st4{clip-path:url(#SVGID_4_);fill-rule:evenodd;clip-rule:evenodd;fill:#F2F2F3;}
	.st5{clip-path:url(#SVGID_4_);fill:none;stroke:#A5A4A4;stroke-miterlimit:8;}
	.st6{clip-path:url(#SVGID_6_);fill-rule:evenodd;clip-rule:evenodd;}
	.st7{clip-path:url(#SVGID_6_);fill:none;stroke:#A5A4A4;stroke-miterlimit:8;}
	.st8{fill-rule:evenodd;clip-rule:evenodd;fill:#ED2024;}
	.st9{clip-path:url(#SVGID_9_);}
	.st10{clip-path:url(#SVGID_10_);}
	.st11{clip-path:url(#SVGID_12_);}
	.st12{clip-path:url(#SVGID_15_);}
	.st13{clip-path:url(#SVGID_16_);}
	.st14{clip-path:url(#SVGID_18_);}
</style>
<path class="st0" d="M197.4,451c-4,0-7.2-3.2-7.2-7.2c0-4,3.2-7.2,7.2-7.2c0,0,0,0,0,0v7.2L197.4,451L197.4,451z"/>
<path class="st1" d="M197.4,451c-4,0-7.2-3.2-7.2-7.2c0-4,3.2-7.2,7.2-7.2c0,0,0,0,0,0v7.2L197.4,451L197.4,451z"/>
<g>
	<defs>
		<polygon id="SVGID_1_" points="189.7,451.5 205,451.5 205,436.1 189.7,436.1 189.7,451.5 		"/>
	</defs>
	<clipPath id="SVGID_2_">
		<use xlink:href="#SVGID_1_"  style="overflow:visible;"/>
	</clipPath>
	<path class="st2" d="M197.3,436.6c4,0,7.2,3.2,7.2,7.2c0,4-3.2,7.2-7.2,7.2c0,0,0,0,0,0v-7.2L197.3,436.6L197.3,436.6z"/>
	<path class="st3" d="M197.3,436.6c4,0,7.2,3.2,7.2,7.2c0,4-3.2,7.2-7.2,7.2c0,0,0,0,0,0v-7.2L197.3,436.6L197.3,436.6z"/>
</g>
<path class="st0" d="M197.3,466.8c4,0,7.2,3.2,7.2,7.2s-3.2,7.2-7.2,7.2c0,0,0,0,0,0l0-7.2L197.3,466.8L197.3,466.8z"/>
<path class="st1" d="M197.3,466.8c4,0,7.2,3.2,7.2,7.2s-3.2,7.2-7.2,7.2c0,0,0,0,0,0l0-7.2L197.3,466.8L197.3,466.8z"/>
<g>
	<defs>
		<polygon id="SVGID_3_" points="205,466.3 189.7,466.3 189.7,481.7 205.1,481.6 205,466.3 		"/>
	</defs>
	<clipPath id="SVGID_4_">
		<use xlink:href="#SVGID_3_"  style="overflow:visible;"/>
	</clipPath>
	<path class="st4" d="M197.4,481.2c-4,0-7.2-3.2-7.2-7.2c0-4,3.2-7.2,7.2-7.2c0,0,0,0,0,0l0,7.2L197.4,481.2L197.4,481.2z"/>
	<path class="st5" d="M197.4,481.2c-4,0-7.2-3.2-7.2-7.2c0-4,3.2-7.2,7.2-7.2c0,0,0,0,0,0l0,7.2L197.4,481.2L197.4,481.2z"/>
</g>
<g>
	<path class="st0" d="M197.4,511.9c-4,0-7.2-3.2-7.2-7.2c0-4,3.2-7.2,7.2-7.2c0,0,0,0,0,0v7.2L197.4,511.9L197.4,511.9z"/>
	<path class="st1" d="M197.4,511.9c-4,0-7.2-3.2-7.2-7.2c0-4,3.2-7.2,7.2-7.2c0,0,0,0,0,0v7.2L197.4,511.9L197.4,511.9z"/>
	<g>
		<defs>
			<polygon id="SVGID_5_" points="189.6,512.3 205,512.3 205,497 189.6,497 189.6,512.3 			"/>
		</defs>
		<clipPath id="SVGID_6_">
			<use xlink:href="#SVGID_5_"  style="overflow:visible;"/>
		</clipPath>
		<path class="st6" d="M197.3,497.5c4,0,7.2,3.2,7.2,7.2c0,4-3.2,7.2-7.2,7.2c0,0,0,0,0,0v-7.2L197.3,497.5L197.3,497.5z"/>
		<path class="st7" d="M197.3,497.5c4,0,7.2,3.2,7.2,7.2c0,4-3.2,7.2-7.2,7.2c0,0,0,0,0,0v-7.2L197.3,497.5L197.3,497.5z"/>
	</g>
</g>
<g>
	<path class="st8" d="M190.2,536.9c0-4,3.2-7.2,7.2-7.2c4,0,7.2,3.2,7.2,7.2s-3.2,7.2-7.2,7.2C193.4,544.1,190.2,540.9,190.2,536.9
		L190.2,536.9z"/>
	<path class="st1" d="M190.2,536.9c0-4,3.2-7.2,7.2-7.2c4,0,7.2,3.2,7.2,7.2s-3.2,7.2-7.2,7.2C193.4,544.1,190.2,540.9,190.2,536.9
		L190.2,536.9z"/>
</g>
<g>
	<g>
		<defs>
			<polygon id="SVGID_7_" points="189.9,579.5 207.9,579.5 207.9,561.5 189.9,561.5 189.9,579.5 			"/>
		</defs>
		<defs>
			<polygon id="SVGID_8_" points="189.9,579.5 189.9,561.5 207.9,561.5 207.9,579.5 189.9,579.5 			"/>
		</defs>
		<clipPath id="SVGID_9_">
			<use xlink:href="#SVGID_7_"  style="overflow:visible;"/>
		</clipPath>
		<clipPath id="SVGID_10_" class="st9">
			<use xlink:href="#SVGID_8_"  style="overflow:visible;"/>
		</clipPath>
		<g class="st10">
			<defs>
				<polygon id="SVGID_11_" points="207.9,579.5 207.9,561.5 189.9,561.5 189.9,579.5 207.9,579.5 				"/>
			</defs>
			<clipPath id="SVGID_12_">
				<use xlink:href="#SVGID_11_"  style="overflow:visible;"/>
			</clipPath>
			<path class="st11" d="M196.4,563.5v9.2l-0.8-3.4c-0.1-0.5-0.6-0.8-1.1-0.7c-0.5,0.1-0.8,0.6-0.7,1.1l1.1,5
				c0.1,0.2,0.2,0.4,0.4,0.5l2,1.6v1.4h5.4v-0.9c0-1.3,1.5-1.4,1.5-3.9c0-0.6,0-2.6,0-3.3c0-0.6-0.5-1.1-1.1-1.1
				c-0.3,0-0.6,0.1-0.7,0.3c0,0,0-0.1,0-0.1c0-0.6-0.5-1.1-1.1-1.1c-0.3,0-0.6,0.1-0.8,0.3c-0.1-0.5-0.6-0.9-1.1-0.9
				c-0.6,0-1.1,0.5-1.1,1.1v-5c0-0.5-0.4-0.9-0.9-0.9C196.8,562.6,196.4,563,196.4,563.5L196.4,563.5z"/>
		</g>
	</g>
</g>
<g>
	<g>
		<defs>
			<polygon id="SVGID_13_" points="190.1,614.6 211.7,614.6 211.7,593 190.1,593 190.1,614.6 			"/>
		</defs>
		<defs>
			<polygon id="SVGID_14_" points="190.1,593 211.7,593 211.7,614.6 190.1,614.6 190.1,593 			"/>
		</defs>
		<clipPath id="SVGID_15_">
			<use xlink:href="#SVGID_13_"  style="overflow:visible;"/>
		</clipPath>
		<clipPath id="SVGID_16_" class="st12">
			<use xlink:href="#SVGID_14_"  style="overflow:visible;"/>
		</clipPath>
		<g class="st13">
			<defs>
				<polygon id="SVGID_17_" points="190.1,614.6 211.7,614.6 211.7,593 190.1,593 190.1,614.6 				"/>
			</defs>
			<clipPath id="SVGID_18_">
				<use xlink:href="#SVGID_17_"  style="overflow:visible;"/>
			</clipPath>
			<path class="st14" d="M194.8,604.2v2.6c0,1.2,2.8,2.4,6.2,2.4s6.2-1.2,6.2-2.4v-2.6l-6.2,2.2L194.8,604.2L194.8,604.2
				L194.8,604.2z"/>
			<path class="st14" d="M201,605.4l9.7-3.4l-9.7-3.5l-9.7,3.5l1.2,0.4v4.1c0,0.2,0.2,0.4,0.4,0.4s0.4-0.2,0.4-0.4v-3.8L201,605.4
				L201,605.4L201,605.4z"/>
		</g>
	</g>
</g>
</svg>
