<?xml version="1.0" encoding="UTF-8" standalone="no"?>
<!-- Generator: Adobe Illustrator 25.2.3, SVG Export Plug-In . SVG Version: 6.00 Build 0)  -->

<svg
   xmlns:dc="http://purl.org/dc/elements/1.1/"
   xmlns:cc="http://creativecommons.org/ns#"
   xmlns:rdf="http://www.w3.org/1999/02/22-rdf-syntax-ns#"
   xmlns:svg="http://www.w3.org/2000/svg"
   xmlns="http://www.w3.org/2000/svg"
   xmlns:xlink="http://www.w3.org/1999/xlink"
   xmlns:sodipodi="http://sodipodi.sourceforge.net/DTD/sodipodi-0.dtd"
   xmlns:inkscape="http://www.inkscape.org/namespaces/inkscape"
   version="1.1"
   id="Layer_1"
   x="0px"
   y="0px"
   viewBox="0 0 10.419159 15.515426"
   xml:space="preserve"
   sodipodi:docname="tutorial.svg"
   width="10.41916"
   height="15.515426"
   inkscape:version="0.92.4 (5da689c313, 2019-01-14)"><metadata
   id="metadata119"><rdf:RDF><cc:Work
       rdf:about=""><dc:format>image/svg+xml</dc:format><dc:type
         rdf:resource="http://purl.org/dc/dcmitype/StillImage" /><dc:title></dc:title></cc:Work></rdf:RDF></metadata><defs
   id="defs117" /><sodipodi:namedview
   pagecolor="#ffffff"
   bordercolor="#666666"
   borderopacity="1"
   objecttolerance="10"
   gridtolerance="10"
   guidetolerance="10"
   inkscape:pageopacity="0"
   inkscape:pageshadow="2"
   inkscape:window-width="1920"
   inkscape:window-height="1027"
   id="namedview115"
   showgrid="false"
   fit-margin-top="0"
   fit-margin-left="0"
   fit-margin-right="0"
   fit-margin-bottom="0"
   inkscape:zoom="3.3712566"
   inkscape:cx="73.453407"
   inkscape:cy="54.889484"
   inkscape:window-x="1912"
   inkscape:window-y="-8"
   inkscape:window-maximized="1"
   inkscape:current-layer="Layer_1" />
<style
   type="text/css"
   id="style2">
	.st0{fill-rule:evenodd;clip-rule:evenodd;}
	.st1{fill:none;stroke:#A5A4A4;stroke-miterlimit:8;}
	.st2{clip-path:url(#SVGID_2_);fill-rule:evenodd;clip-rule:evenodd;fill:#F2F2F3;}
	.st3{clip-path:url(#SVGID_2_);fill:none;stroke:#A5A4A4;stroke-miterlimit:8;}
	.st4{clip-path:url(#SVGID_4_);fill-rule:evenodd;clip-rule:evenodd;fill:#F2F2F3;}
	.st5{clip-path:url(#SVGID_4_);fill:none;stroke:#A5A4A4;stroke-miterlimit:8;}
	.st6{clip-path:url(#SVGID_6_);fill-rule:evenodd;clip-rule:evenodd;}
	.st7{clip-path:url(#SVGID_6_);fill:none;stroke:#A5A4A4;stroke-miterlimit:8;}
	.st8{fill-rule:evenodd;clip-rule:evenodd;fill:#ED2024;}
	.st9{clip-path:url(#SVGID_9_);}
	.st10{clip-path:url(#SVGID_10_);}
	.st11{clip-path:url(#SVGID_12_);}
	.st12{clip-path:url(#SVGID_15_);}
	.st13{clip-path:url(#SVGID_16_);}
	.st14{clip-path:url(#SVGID_18_);}
</style>








<g
   id="g84"
   transform="translate(-193.78084,-562.68457)">
	<g
   id="g82">
		<defs
   id="defs61">
			<polygon
   id="SVGID_7_"
   points="207.9,561.5 189.9,561.5 189.9,579.5 207.9,579.5 " />
		</defs>
		<defs
   id="defs64">
			<polygon
   id="SVGID_8_"
   points="207.9,561.5 207.9,579.5 189.9,579.5 189.9,561.5 " />
		</defs>
		<clipPath
   id="SVGID_9_">
			<use
   xlink:href="#SVGID_7_"
   style="overflow:visible"
   id="use66"
   x="0"
   y="0"
   width="100%"
   height="100%" />
		</clipPath>
		<clipPath
   id="SVGID_10_"
   class="st9"
   clip-path="url(#SVGID_9_)">
			<use
   xlink:href="#SVGID_8_"
   style="overflow:visible"
   id="use69"
   x="0"
   y="0"
   width="100%"
   height="100%" />
		</clipPath>
		<g
   class="st10"
   clip-path="url(#SVGID_10_)"
   id="g80">
			<defs
   id="defs73">
				<polygon
   id="SVGID_11_"
   points="189.9,561.5 189.9,579.5 207.9,579.5 207.9,561.5 " />
			</defs>
			<clipPath
   id="SVGID_12_">
				<use
   xlink:href="#SVGID_11_"
   style="overflow:visible"
   id="use75"
   x="0"
   y="0"
   width="100%"
   height="100%" />
			</clipPath>
			<path
   class="st11"
   d="m 196.4,563.5 v 9.2 l -0.8,-3.4 c -0.1,-0.5 -0.6,-0.8 -1.1,-0.7 -0.5,0.1 -0.8,0.6 -0.7,1.1 l 1.1,5 c 0.1,0.2 0.2,0.4 0.4,0.5 l 2,1.6 v 1.4 h 5.4 v -0.9 c 0,-1.3 1.5,-1.4 1.5,-3.9 0,-0.6 0,-2.6 0,-3.3 0,-0.6 -0.5,-1.1 -1.1,-1.1 -0.3,0 -0.6,0.1 -0.7,0.3 0,0 0,-0.1 0,-0.1 0,-0.6 -0.5,-1.1 -1.1,-1.1 -0.3,0 -0.6,0.1 -0.8,0.3 -0.1,-0.5 -0.6,-0.9 -1.1,-0.9 -0.6,0 -1.1,0.5 -1.1,1.1 v -5 c 0,-0.5 -0.4,-0.9 -0.9,-0.9 -0.6,-0.1 -1,0.3 -1,0.8 z"
   clip-path="url(#SVGID_12_)"
   id="path78"
   inkscape:connector-curvature="0" />
		</g>
	</g>
</g>

</svg>